first trial
nRows=30
nColumns=38

# SIMM Motion File Header:
name Sujet_02_velo_60.mvnx
datacolumns 38
datarows 30
otherdata 1
range 5.1990 5.6830
endheader
time pelvis_tilt  pelvis_list  pelvis_rotation  pelvis_tx  pelvis_ty  pelvis_tz  hip_flexion_r  hip_adduction_r  hip_rotation_r  knee_angle_r  ankle_angle_r  subtalar_angle_r  mtp_angle_r  hip_flexion_l  hip_adduction_l  hip_rotation_l  knee_angle_l  ankle_angle_l  subtalar_angle_l  mtp_angle_l  lumbar_extension  lumbar_bending  lumbar_rotation  arm_flex_r  arm_add_r  arm_rot_r  elbow_flex_r  pro_sup_r  wrist_flex_r  wrist_dev_r  arm_flex_l  arm_add_l  arm_rot_l  elbow_flex_l  pro_sup_l  wrist_flex_l  wrist_dev_l
5.1990	7.1607	0.0411	-89.3011	-1.0922	3.5119	3.6712	24.4233	-1.7634	-4.3978	40.9107	2.0320	-8.7614	0.0000	62.8537	2.8563	0.7589	104.9165	-9.1378	-10.3879	-0.0000	-26.1445	4.1319	0.2126	86.5640	-14.4042	48.7237	7.3469	92.8622	-15.8197	-3.7406	86.4285	6.8053	35.3083	1.7850	97.6284	-24.4577	-10.7775	
5.2160	7.0907	0.0153	-89.2675	-1.0946	3.5199	3.6817	24.1340	-1.6527	-4.6528	42.1505	2.2283	-8.6018	-0.0000	63.1687	3.1432	0.8129	104.0354	-8.8457	-10.5305	0.0000	-26.2018	4.0874	0.2258	86.4122	-14.4965	48.6088	7.3474	92.7741	-15.7731	-3.7141	86.4852	6.9307	35.1343	1.8573	97.7340	-24.1495	-10.3904	
5.2330	6.9960	0.0003	-89.2923	-1.0969	3.5282	3.6923	24.2144	-1.5898	-4.9997	43.9757	2.5520	-8.3343	-0.0000	63.4092	3.3320	0.7792	103.0246	-8.6595	-10.5930	-0.0000	-26.2659	4.0230	0.2697	86.2213	-14.5925	48.5032	7.3721	92.6716	-15.7265	-3.6753	86.5639	7.0430	34.8855	1.9394	97.9321	-23.8648	-10.0237	
5.2490	6.9273	-0.0158	-89.3600	-1.0990	3.5366	3.7023	24.5342	-1.6088	-5.3313	46.2403	2.9865	-7.9934	0.0000	63.5997	3.4201	0.7027	101.7422	-8.4884	-10.6067	0.0000	-26.3286	3.9554	0.3369	86.0787	-14.6623	48.4252	7.3797	92.5723	-15.6903	-3.6513	86.6504	7.1300	34.7403	1.9845	98.0607	-23.5858	-9.7101	
5.2660	6.9150	-0.0325	-89.4889	-1.1009	3.5452	3.7114	25.0427	-1.7287	-5.6607	48.9411	3.5684	-7.5729	0.0000	63.8371	3.3874	0.5976	100.1404	-8.3653	-10.5617	0.0000	-26.3934	3.8814	0.4371	86.0289	-14.6903	48.3925	7.3500	92.4735	-15.6672	-3.6518	86.7449	7.1848	34.8040	1.9631	98.0323	-23.2938	-9.4642	
5.2830	6.9286	-0.0503	-89.6606	-1.1026	3.5539	3.7199	25.7893	-1.9329	-5.9737	52.0842	4.2635	-7.0826	0.0000	64.0244	3.2535	0.4512	98.2668	-8.2595	-10.4631	-0.0000	-26.4567	3.8041	0.5607	86.0277	-14.6924	48.3875	7.3032	92.3779	-15.6544	-3.6669	86.8462	7.2143	34.9714	1.9024	97.9330	-23.0089	-9.2730	
5.2990	6.9272	-0.0834	-89.8056	-1.1042	3.5626	3.7285	26.7940	-2.1988	-6.1205	55.5348	4.9480	-6.5799	-0.0000	63.8949	3.0765	0.2650	96.1230	-7.9842	-10.3611	0.0000	-26.4998	3.7485	0.6709	86.0298	-14.6869	48.3748	7.2591	92.3110	-15.6535	-3.6949	86.9375	7.2272	35.1051	1.8380	97.8596	-22.7721	-9.1276	
5.3160	6.8895	-0.1362	-89.8984	-1.1058	3.5710	3.7375	28.0982	-2.5209	-5.9957	59.3033	5.5956	-6.0907	0.0000	63.3356	2.8746	0.0447	93.6766	-7.3879	-10.2844	-0.0000	-26.5145	3.7235	0.7537	86.0245	-14.6773	48.3336	7.2178	92.2888	-15.6629	-3.7348	87.0160	7.2274	35.1509	1.7864	97.8590	-22.6060	-9.0334	
5.3330	6.8367	-0.2045	-89.9642	-1.1072	3.5793	3.7465	29.6646	-2.8940	-5.6986	63.3768	6.2311	-5.5882	-0.0000	62.4593	2.6340	-0.2216	90.9601	-6.6224	-10.1890	0.0000	-26.5092	3.7205	0.8231	86.0226	-14.6599	48.2847	7.1792	92.2954	-15.6842	-3.7875	87.0849	7.2109	35.1630	1.7312	97.8844	-22.4862	-8.9833	
5.3490	6.7915	-0.2897	89.9904	-1.1086	3.5875	3.7555	31.3955	-3.2977	-5.3876	67.5845	6.8065	-5.0507	-0.0000	61.3383	2.3668	-0.5608	88.0722	-5.9547	-10.0211	-0.0000	-26.4910	3.7388	0.8851	86.0099	-14.6427	48.2556	7.1627	92.3086	-15.7235	-3.8535	87.1372	7.1737	35.1661	1.6600	97.8923	-22.3825	-8.9486	
5.3660	6.7621	-0.3990	89.9758	-1.1100	3.5956	3.7642	33.2691	-3.7382	-5.0841	71.9087	7.2402	-4.4763	-0.0000	59.9650	2.0856	-1.0215	85.0043	-5.4560	-9.7553	0.0000	-26.4581	3.7837	0.9421	85.9871	-14.6344	48.2661	7.1869	92.3169	-15.7945	-3.9469	87.1674	7.1145	35.1573	1.5678	97.8707	-22.2835	-8.9155	
5.3830	6.7403	-0.5252	89.9818	-1.1113	3.6037	3.7729	35.3077	-4.2093	-4.7605	76.3719	7.6149	-3.8704	0.0000	58.3459	1.7860	-1.5601	81.7622	-5.0555	-9.4216	-0.0000	-26.4123	3.8499	0.9915	85.9535	-14.6262	48.2964	7.2332	92.3318	-15.8834	-4.0535	87.1811	7.0346	35.1396	1.4595	97.8318	-22.2003	-8.8974	
5.3990	6.7230	-0.6481	89.9712	-1.1126	3.6118	3.7814	37.4770	-4.6818	-4.5048	80.8640	8.1279	-3.2193	-0.0000	56.5751	1.4512	-2.0650	78.4672	-4.8072	-9.0580	-0.0000	-26.3659	3.9206	1.0317	85.8938	-14.5989	48.3147	7.2660	92.3655	-15.9546	-4.1304	87.1870	6.9339	35.1467	1.3368	97.7688	-22.1365	-8.9064	
5.4160	6.7124	-0.7852	89.9326	-1.1139	3.6205	3.7898	39.9570	-5.1765	-4.3597	85.8617	9.2506	-2.4357	-0.0000	54.6589	1.0524	-2.4699	75.1239	-4.7659	-8.6438	0.0000	-26.3353	4.0039	1.0639	85.7733	-14.5498	48.3073	7.2664	92.4227	-15.9921	-4.1594	87.1769	6.7972	35.2133	1.1871	97.6616	-22.0884	-8.9444	
5.4330	6.7066	-0.9191	89.8775	-1.1153	3.6293	3.7982	42.5661	-5.6803	-4.2792	90.8838	10.5097	-1.5978	-0.0000	52.5914	0.6162	-2.8515	71.7307	-4.8760	-8.2023	0.0000	-26.3043	4.0918	1.0869	85.6267	-14.4818	48.2878	7.2530	92.4986	-16.0119	-4.1589	87.1590	6.6398	35.3048	1.0234	97.5310	-22.0596	-9.0095	
5.4490	6.6969	-0.9776	89.8035	-1.1168	3.6372	3.8063	44.7261	-6.1126	-4.2269	94.3783	10.6872	-0.9465	-0.0000	50.4469	0.2122	-3.3077	68.4025	-5.0277	-7.8386	0.0000	-26.2358	4.1432	1.0955	85.5427	-14.3830	48.2653	7.2462	92.5920	-16.0268	-4.1408	87.1669	6.5063	35.3506	0.8863	97.4313	-22.0652	-9.1083	
5.4660	6.6865	-0.9138	89.7025	-1.1185	3.6432	3.8141	46.1016	-6.4260	-4.2504	95.3423	8.9936	-0.6121	0.0000	48.2115	-0.1239	-3.8937	65.1680	-5.1055	-7.6196	0.0000	-26.1051	4.1313	1.0854	85.5671	-14.2421	48.2328	7.2599	92.7108	-16.0376	-4.0982	87.2253	6.4191	35.3115	0.7972	97.3951	-22.1152	-9.2504	
5.4830	6.6722	-0.7745	89.5826	-1.1203	3.6483	3.8217	47.0267	-6.6676	-4.3149	94.7757	6.2200	-0.4741	-0.0000	45.8963	-0.4060	-4.5466	61.9990	-5.2255	-7.4830	-0.0000	-25.9367	4.0829	1.0615	85.6540	-14.0703	48.1973	7.2802	92.8472	-16.0436	-4.0379	87.3091	6.3555	35.2265	0.7344	97.3892	-22.2003	-9.4268	
5.4990	6.6350	-0.6289	89.4667	-1.1222	3.6535	3.8296	47.9303	-6.8899	-4.2643	94.1310	3.5200	-0.4002	0.0000	43.6130	-0.6416	-5.1812	58.9239	-5.6252	-7.3391	-0.0000	-25.7669	4.0376	1.0326	85.7548	-13.8902	48.1878	7.2856	92.9760	-16.0551	-3.9920	87.3768	6.2936	35.1429	0.6736	97.3688	-22.3060	-9.6160	
5.5160	6.5626	-0.4936	89.3631	-1.1243	3.6593	3.8378	48.9700	-7.1250	-4.0090	93.8901	1.2379	-0.3192	0.0000	41.3592	-0.8323	-5.7918	55.8618	-6.4870	-7.1336	0.0000	-25.6006	4.0087	0.9971	85.8622	-13.7051	48.2348	7.2614	93.0913	-16.0886	-3.9868	87.4124	6.2211	35.0778	0.6007	97.3196	-22.4436	-9.8292	
5.5330	6.4675	-0.3519	89.2638	-1.1264	3.6652	3.8463	49.9896	-7.3340	-3.6385	93.5712	-0.9722	-0.2949	0.0000	39.1389	-0.9805	-6.3788	52.8947	-7.6268	-6.9265	-0.0000	-25.4329	3.9828	0.9563	85.9833	-13.5114	48.3075	7.2220	93.1989	-16.1276	-3.9960	87.4318	6.1503	35.0141	0.5303	97.2561	-22.6022	-10.0556	
5.5490	6.3698	-0.2233	89.1671	-1.1285	3.6712	3.8552	50.9459	-7.4629	-3.2640	93.1788	-2.9912	-0.3967	-0.0000	37.0745	-1.1137	-6.8705	50.2953	-8.7342	-6.7937	0.0000	-25.2848	3.9596	0.9223	86.0913	-13.3218	48.3440	7.1885	93.2915	-16.1333	-3.9736	87.4418	6.0960	34.9476	0.4808	97.1762	-22.7328	-10.2397	
5.5660	6.2725	-0.1134	89.0725	-1.1306	3.6773	3.8645	51.8206	-7.4845	-2.9140	92.6543	-5.0926	-0.6890	-0.0000	35.1876	-1.2661	-7.2299	48.1124	-9.7409	-6.7513	-0.0000	-25.1599	3.9379	0.8994	86.1627	-13.1289	48.3050	7.1644	93.3689	-16.0845	-3.8981	87.4459	6.0676	34.8753	0.4623	97.0836	-22.8268	-10.3724	
5.5830	6.1726	-0.0166	88.9806	-1.1326	3.6835	3.8742	52.6293	-7.4288	-2.5646	92.0558	-7.0045	-1.1052	0.0000	33.4576	-1.4213	-7.4946	46.2951	-10.7163	-6.7760	-0.0000	-25.0548	3.9188	0.8829	86.2217	-12.9405	48.2301	7.1464	93.4313	-16.0028	-3.7913	87.4408	6.0559	34.8003	0.4646	96.9741	-22.8919	-10.4622	
5.5990	6.0820	0.0645	88.8906	-1.1346	3.6900	3.8841	53.3795	-7.3315	-2.2480	91.5632	-7.7877	-1.5177	0.0000	31.9443	-1.5354	-7.7049	44.9649	-11.5586	-6.8780	0.0000	-24.9798	3.9056	0.8712	86.3136	-12.7916	48.1752	7.1448	93.4721	-15.9142	-3.6728	87.4232	6.0482	34.7276	0.4755	96.8332	-22.9040	-10.4795	
5.6160	6.0067	0.1216	88.8075	-1.1368	3.6970	3.8942	54.0843	-7.2064	-1.9710	91.3131	-6.7311	-1.8919	-0.0000	30.6351	-1.5952	-7.9119	44.1408	-12.2019	-7.0737	-0.0000	-24.9448	3.9042	0.8675	86.4805	-12.7140	48.1681	7.1759	93.4910	-15.8259	-3.5507	87.3872	6.0533	34.6538	0.4907	96.6426	-22.8443	-10.3963	
5.6330	5.9408	0.1633	88.7261	-1.1389	3.7042	3.9046	54.7300	-7.0424	-1.7282	91.1686	-4.5343	-2.3091	-0.0000	29.5436	-1.6215	-8.0611	43.8009	-12.7124	-7.3417	0.0000	-24.9399	3.9085	0.8683	86.6804	-12.6758	48.1814	7.2234	93.4882	-15.7310	-3.4171	87.3389	6.0625	34.5823	0.5140	96.4205	-22.7309	-10.2403	
5.6490	5.8787	0.2127	88.6313	-1.1411	3.7116	3.9149	55.2842	-6.8390	-1.5323	90.8998	-2.3780	-2.7888	-0.0000	28.7694	-1.6217	-8.0323	44.0072	-13.1868	-7.6403	-0.0000	-24.9454	3.9041	0.8616	86.8317	-12.6162	48.1883	7.2498	93.4571	-15.6334	-3.2678	87.2933	6.0369	34.5285	0.5457	96.2069	-22.5950	-10.0657	
5.6660	5.8207	0.2871	88.5120	-1.1434	3.7191	3.9253	55.7436	-6.5815	-1.4232	90.4379	-0.6464	-3.3307	0.0000	28.3695	-1.5847	-7.7275	44.8353	-13.6816	-7.9912	-0.0000	-24.9573	3.8820	0.8382	86.8826	-12.5045	48.1686	7.2387	93.3874	-15.5245	-3.0810	87.2403	5.9523	34.4985	0.5940	96.0095	-22.4248	-9.8680	
5.6830	5.7665	0.3691	88.3792	-1.1458	3.7268	3.9357	56.1114	-6.2866	-1.3609	89.8531	1.0388	-3.9157	0.0000	28.2866	-1.5271	-7.2439	46.2129	-14.1418	-8.3734	-0.0000	-24.9794	3.8511	0.8073	86.8851	-12.3718	48.1423	7.2066	93.2895	-15.4132	-2.8784	87.1899	5.8329	34.4862	0.6508	95.8205	-22.2324	-9.6519	
